<svg xmlns="http://www.w3.org/2000/svg" viewBox="0 0 64 64" fill="none">
  <g stroke="#2F2E2B" stroke-width="3" stroke-linecap="round" stroke-linejoin="round">
    <!-- Palm -->
    <path d="M22 30c0 9 5 15 13 18 6 2 11 0 14-4 3-4 2-9-1-12l-4-5"/>
    <!-- Thumb -->
    <path d="M22 30c-3-2-4-5-3-7 1-2 4-2 6 0l3 4"/>
    <!-- Five fingers -->
    <path d="M30 10l3 12"/>
    <path d="M36 9l3 13"/>
    <path d="M42 10l3 12"/>
    <path d="M48 12l3 11"/>
    <path d="M52 15l2 10"/>
    <!-- Subtle wave lines -->
    <path d="M8 22c3-2 6-3 9-3" opacity=".2"/>
    <path d="M8 26c4-3 9-4 13-4" opacity=".12"/>
  </g>
</svg>